<?xml version="1.0" encoding="UTF-8" standalone="no"?>
<!-- Generator: Adobe Illustrator 17.0.0, SVG Export Plug-In . SVG Version: 6.00 Build 0)  -->

<svg
   xmlns:dc="http://purl.org/dc/elements/1.1/"
   xmlns:cc="http://creativecommons.org/ns#"
   xmlns:rdf="http://www.w3.org/1999/02/22-rdf-syntax-ns#"
   xmlns:svg="http://www.w3.org/2000/svg"
   xmlns="http://www.w3.org/2000/svg"
   xmlns:sodipodi="http://sodipodi.sourceforge.net/DTD/sodipodi-0.dtd"
   xmlns:inkscape="http://www.inkscape.org/namespaces/inkscape"
   version="1.1"
   id="Layer_1"
   x="0px"
   y="0px"
   width="562.4491"
   height="107.7457"
   viewBox="0 0 562.4491 107.74572"
   enable-background="new 0 0 600 138.596"
   xml:space="preserve"
   sodipodi:docname="logo.svg"
   inkscape:version="0.92.4 (5da689c313, 2019-01-14)"><metadata
   id="metadata9"><rdf:RDF><cc:Work
       rdf:about=""><dc:format>image/svg+xml</dc:format><dc:type
         rdf:resource="http://purl.org/dc/dcmitype/StillImage" /><dc:title></dc:title></cc:Work></rdf:RDF></metadata><defs
   id="defs7" /><sodipodi:namedview
   pagecolor="#ffffff"
   bordercolor="#666666"
   borderopacity="1"
   objecttolerance="10"
   gridtolerance="10"
   guidetolerance="10"
   inkscape:pageopacity="0"
   inkscape:pageshadow="2"
   inkscape:window-width="2257"
   inkscape:window-height="912"
   id="namedview5"
   showgrid="false"
   inkscape:pagecheckerboard="true"
   inkscape:zoom="0.65333333"
   inkscape:cx="-501.15466"
   inkscape:cy="56.671916"
   inkscape:window-x="0"
   inkscape:window-y="0"
   inkscape:window-maximized="0"
   inkscape:current-layer="text824"
   fit-margin-top="0"
   fit-margin-left="0"
   fit-margin-right="0"
   fit-margin-bottom="0" />

<text
   xml:space="preserve"
   style="font-style:normal;font-variant:normal;font-weight:normal;font-stretch:normal;font-size:75.545784px;line-height:1.25;font-family:Symbol;-inkscape-font-specification:Symbol;letter-spacing:0px;word-spacing:0px;fill:#ffffff;fill-opacity:1;stroke:none;stroke-width:1.88864458"
   x="7.9525819"
   y="72.93042"
   id="text821"><tspan
     sodipodi:role="line"
     x="2.5887994e-07"
     y="-2.3902984e-08"
     style="font-style:normal;font-variant:normal;font-weight:normal;font-stretch:normal;font-family:Symbol;-inkscape-font-specification:Symbol;fill:#ffffff;stroke-width:1.88864458"
     id="tspan823"><tspan
       style="font-style:normal;font-variant:normal;font-weight:normal;font-stretch:normal;font-family:Symbol;-inkscape-font-specification:Symbol"
       id="tspan835" /></tspan></text>




<g
   aria-label="M.J."
   style="font-style:normal;font-weight:normal;font-size:104.35464478px;line-height:1.25;font-family:sans-serif;letter-spacing:0px;word-spacing:0px;fill:#ffffff;fill-opacity:1;stroke:none;stroke-width:2.60886598"
   id="text839"
   transform="translate(-17.918127,-18.224191)"><g
     aria-label="mandula józsef"
     style="font-style:normal;font-weight:normal;font-size:75.545784px;line-height:1.25;font-family:sans-serif;letter-spacing:0px;word-spacing:0px;fill:#ffffff;fill-opacity:1;stroke:none;stroke-width:4.92722082"
     id="text824"
     transform="matrix(1,0,0,1.6325902,0,-49.702824)"><g
   aria-label="pathfinder."
   transform="scale(1.2777285,0.78263887)"
   style="font-style:normal;font-weight:normal;font-size:94.57809448px;line-height:1.25;font-family:sans-serif;letter-spacing:0px;word-spacing:0px;fill:#ffffff;fill-opacity:1;stroke:none;stroke-width:11.65017986"
   id="text832"><path
     d="m 32.126261,112.87398 v 16.07089 q 0,3.32501 0.507988,4.52571 0.554168,1.20069 1.662505,1.75486 1.108337,0.55417 4.340987,0.55417 v 1.70869 H 14.023423 v -1.70869 q 2.863204,-0.0924 4.248625,-1.61632 0.923614,-1.06216 0.923614,-5.49551 V 83.087421 q 0,-4.57189 -1.062156,-5.818769 -1.062157,-1.29306 -4.110083,-1.477783 v -1.708686 h 18.102838 v 5.680227 q 2.262855,-3.325011 4.618071,-4.802794 3.371192,-2.170493 7.342733,-2.170493 4.756613,0 8.635793,3.001746 3.92536,3.001746 5.957311,8.312528 2.031952,5.264601 2.031952,11.360454 0,6.557659 -2.124313,12.006989 -2.078132,5.40314 -6.095854,8.26634 -3.971541,2.81703 -8.866696,2.81703 -3.555915,0 -6.650022,-1.57015 -2.309036,-1.2007 -4.848975,-4.11008 z m 0,-4.66425 q 3.971541,5.63404 8.497251,5.63404 2.493758,0 4.110083,-2.6323 2.401397,-3.87918 2.401397,-14.777824 0,-11.175732 -2.632301,-15.285815 -1.754867,-2.724662 -4.710432,-2.724662 -4.664252,0 -7.665998,6.742384 z"
     style="font-style:normal;font-variant:normal;font-weight:bold;font-stretch:normal;font-family:'Times New Roman';-inkscape-font-specification:'Times New Roman, Bold';fill:#ffffff;stroke-width:11.65017986"
     id="path818" /><path
     d="m 91.884102,110.88821 q -7.896902,6.97329 -14.177478,6.97329 -3.694457,0 -6.142035,-2.4014 -2.447577,-2.44758 -2.447577,-6.09585 0,-4.94134 4.248625,-8.8667 4.248625,-3.971542 18.518465,-10.529203 V 85.62736 q 0,-4.895155 -0.554169,-6.142034 -0.507988,-1.29306 -1.98577,-2.216674 -1.477783,-0.969795 -3.325011,-0.969795 -3.001747,0 -4.941336,1.33924 -1.200699,0.831253 -1.200699,1.93959 0,0.969795 1.29306,2.401397 1.754867,1.98577 1.754867,3.832999 0,2.262855 -1.708686,3.87918 -1.662506,1.570144 -4.387168,1.570144 -2.909385,0 -4.895155,-1.754867 -1.93959,-1.754867 -1.93959,-4.110083 0,-3.325012 2.632301,-6.326758 2.6323,-3.047927 7.342733,-4.664252 4.710432,-1.616324 9.79031,-1.616324 6.142035,0 9.697949,2.6323 3.602092,2.58612 4.664252,5.634047 0.64653,1.93959 0.64653,8.912877 v 16.763593 q 0,2.95557 0.2309,3.74064 0.23091,0.73889 0.69271,1.10834 0.46181,0.36944 1.06216,0.36944 1.2007,0 2.44758,-1.70868 l 1.38542,1.10834 q -2.30904,3.41737 -4.80279,4.98751 -2.44758,1.52397 -5.58787,1.52397 -3.694457,0 -5.772589,-1.70869 -2.078132,-1.75487 -2.539939,-5.2646 z m 0,-3.37119 V 93.062454 q -5.587866,3.278831 -8.312528,7.019466 -1.801048,2.49376 -1.801048,5.0337 0,2.12431 1.523964,3.74064 1.154517,1.24688 3.232649,1.24688 2.309036,0 5.356963,-2.58612 z"
     style="font-style:normal;font-variant:normal;font-weight:bold;font-stretch:normal;font-family:'Times New Roman';-inkscape-font-specification:'Times New Roman, Bold';fill:#ffffff;stroke-width:11.65017986"
     id="path820" /><path
     d="m 132.47695,58.28838 v 15.793803 h 10.25211 v 4.57189 h -10.25211 v 26.646267 q 0,3.74064 0.32326,4.84898 0.36945,1.06215 1.24688,1.75486 0.87743,0.64653 1.61632,0.64653 3.00175,0 5.68023,-4.57189 l 1.38542,1.01598 q -3.74063,8.8667 -12.14552,8.8667 -4.11009,0 -6.97329,-2.26286 -2.81702,-2.30903 -3.6021,-5.12606 -0.4618,-1.57014 -0.4618,-8.49725 V 78.654073 h -5.63405 v -1.616325 q 5.81877,-4.110083 9.88267,-8.635793 4.11009,-4.525709 7.15801,-10.113575 z"
     style="font-style:normal;font-variant:normal;font-weight:bold;font-stretch:normal;font-family:'Times New Roman';-inkscape-font-specification:'Times New Roman, Bold';fill:#ffffff;stroke-width:11.65017986"
     id="path822" /><path
     d="m 164.57253,54.640104 v 24.983764 q 3.55592,-3.740638 6.51148,-5.264601 2.95557,-1.570144 6.14204,-1.570144 4.0639,0 6.92711,2.309035 2.90938,2.309036 3.83299,5.449324 0.9698,3.094108 0.9698,10.483021 v 16.855957 q 0,4.94134 0.92361,6.18822 0.92362,1.2007 3.74064,1.52396 v 1.66251 h -21.88966 v -1.66251 q 2.30904,-0.32326 3.46356,-1.84723 0.83125,-1.2007 0.83125,-5.86495 V 88.629106 q 0,-5.356962 -0.41563,-6.696203 -0.41562,-1.385421 -1.4316,-2.124312 -0.96979,-0.785072 -2.21667,-0.785072 -1.84723,0 -3.6021,1.293059 -1.75486,1.24688 -3.78682,4.433349 v 23.136533 q 0,4.61807 0.69272,5.77259 0.87743,1.57015 3.60209,1.93959 v 1.66251 h -21.88966 v -1.66251 q 2.72467,-0.27708 3.87918,-1.75487 0.78508,-1.01597 0.78508,-5.95731 V 64.014788 q 0,-4.895156 -0.92362,-6.095854 -0.87743,-1.200699 -3.74064,-1.570144 v -1.708686 z"
     style="font-style:normal;font-variant:normal;font-weight:bold;font-stretch:normal;font-family:'Times New Roman';-inkscape-font-specification:'Times New Roman, Bold';fill:#ffffff;stroke-width:11.65017986"
     id="path824" /><path
     d="m 218.51161,78.607892 v 29.971278 q 0,4.34099 0.92361,5.44933 1.47778,1.70868 5.44932,1.57014 v 1.66251 h -25.44557 v -1.66251 q 2.90939,-0.0462 4.11009,-0.64653 1.24687,-0.64653 1.70868,-1.75487 0.46181,-1.10833 0.46181,-4.61807 V 78.607892 h -6.28058 v -4.525709 h 6.28058 v -3.186469 l -0.0462,-2.170494 q 0,-6.650022 4.84897,-11.08337 4.89516,-4.433348 13.20769,-4.433348 5.68022,0 8.40489,2.124312 2.77084,2.124313 2.77084,4.710433 0,2.078132 -1.70869,3.602095 -1.70868,1.523963 -4.52571,1.523963 -2.40139,0 -3.833,-1.246879 -1.38542,-1.246879 -1.38542,-2.770842 0,-0.415627 0.27709,-1.708687 0.18472,-0.785072 0.18472,-1.477782 0,-0.969795 -0.55417,-1.431602 -0.73889,-0.692711 -1.80105,-0.692711 -1.33924,0 -2.26285,1.108337 -0.87744,1.108337 -0.87744,3.555915 l 0.0924,8.081624 v 5.495505 h 6.37293 v 4.525709 z"
     style="font-style:normal;font-variant:normal;font-weight:bold;font-stretch:normal;font-family:'Times New Roman';-inkscape-font-specification:'Times New Roman, Bold';fill:#ffffff;stroke-width:11.65017986"
     id="path826" /><path
     d="m 241.55579,53.162321 q 3.00175,0 5.07988,2.124312 2.07813,2.078132 2.07813,5.033698 0,2.955565 -2.12431,5.033697 -2.07813,2.078132 -5.0337,2.078132 -2.95557,0 -5.0337,-2.078132 -2.07813,-2.078132 -2.07813,-5.033697 0,-2.955566 2.07813,-5.033698 2.07813,-2.124312 5.0337,-2.124312 z m 6.4653,20.919862 v 34.219907 q 0,4.57189 1.06216,5.86495 1.06215,1.24688 4.15626,1.4316 v 1.66251 h -23.32126 v -1.66251 q 2.86321,-0.0924 4.24863,-1.6625 0.92361,-1.06216 0.92361,-5.63405 V 83.087421 q 0,-4.57189 -1.06216,-5.818769 -1.06215,-1.29306 -4.11008,-1.477783 v -1.708686 z"
     style="font-style:normal;font-variant:normal;font-weight:bold;font-stretch:normal;font-family:'Times New Roman';-inkscape-font-specification:'Times New Roman, Bold';fill:#ffffff;stroke-width:11.65017986"
     id="path828" /><path
     d="m 275.0368,74.082183 v 5.587865 q 3.32501,-3.602095 6.37294,-5.21842 3.04792,-1.662505 6.55766,-1.662505 4.20244,0 6.97328,2.355216 2.77085,2.309035 3.69446,5.772589 0.73889,2.6323 0.73889,10.113575 v 16.809777 q 0,4.98752 0.87744,6.2344 0.92361,1.2007 3.78681,1.52396 v 1.66251 h -21.84347 v -1.66251 q 2.44758,-0.32326 3.50973,-2.03195 0.73889,-1.15452 0.73889,-5.72641 V 88.629106 q 0,-5.310781 -0.41562,-6.696203 -0.41563,-1.385421 -1.4316,-2.124312 -0.9698,-0.785072 -2.1705,-0.785072 -3.97154,0 -7.38891,5.680227 v 23.136534 q 0,4.84898 0.87743,6.14204 0.92362,1.29306 3.37119,1.61632 v 1.66251 h -21.84347 v -1.66251 q 2.72466,-0.27708 3.87918,-1.75487 0.78507,-1.01597 0.78507,-6.00349 V 83.456867 q 0,-4.895156 -0.92361,-6.095854 -0.87744,-1.200699 -3.74064,-1.570144 v -1.708686 z"
     style="font-style:normal;font-variant:normal;font-weight:bold;font-stretch:normal;font-family:'Times New Roman';-inkscape-font-specification:'Times New Roman, Bold';fill:#ffffff;stroke-width:11.65017986"
     id="path830" /><path
     d="m 352.02004,54.640104 v 49.690446 q 0,5.0337 0.27709,5.95731 0.36944,1.52396 1.38542,2.26285 1.06216,0.7389 3.64828,0.92362 v 1.52396 l -18.24138,3.55592 v -6.83475 q -3.27884,3.97154 -5.86495,5.40314 -2.53994,1.43161 -5.77259,1.43161 -8.26635,0 -13.06914,-7.38892 -3.87918,-6.00349 -3.87918,-14.731644 0,-6.973287 2.40139,-12.468792 2.4014,-5.541685 6.55766,-8.358708 4.20245,-2.817023 9.00524,-2.817023 3.09411,0 5.49551,1.200698 2.40139,1.200699 5.12606,4.202445 V 65.169305 q 0,-4.941336 -0.41563,-5.957311 -0.55417,-1.339241 -1.66251,-1.985771 -1.10833,-0.64653 -4.15626,-0.64653 v -1.939589 z m -12.93059,29.27857 q -3.41738,-6.557661 -8.35871,-6.557661 -1.70869,0 -2.81703,0.923614 -1.70868,1.431602 -2.81702,5.033698 -1.06216,3.602095 -1.06216,11.037189 0,8.173986 1.2007,12.099346 1.2007,3.92536 3.27883,5.68023 1.06216,0.87743 2.90939,0.87743 4.0639,0 7.666,-6.37294 z"
     style="font-style:normal;font-variant:normal;font-weight:bold;font-stretch:normal;font-family:'Times New Roman';-inkscape-font-specification:'Times New Roman, Bold';fill:#ffffff;stroke-width:11.65017986"
     id="path832" /><path
     d="m 399.26293,94.124611 h -23.69071 q 0.41563,8.589609 4.57189,13.577129 3.18647,3.833 7.666,3.833 2.77084,0 5.0337,-1.52396 2.26285,-1.57015 4.84897,-5.58787 l 1.57015,1.01597 q -3.50974,7.15801 -7.75836,10.15976 -4.24863,2.95557 -9.83649,2.95557 -9.60559,0 -14.54693,-7.38892 -3.97154,-5.95731 -3.97154,-14.777824 0,-10.806287 5.81877,-17.179225 5.86495,-6.419118 13.71567,-6.419118 6.55766,0 11.36046,5.403143 4.84897,5.356962 5.21842,15.932345 z m -11.36046,-3.094108 q 0,-7.435094 -0.83125,-10.205937 -0.78507,-2.770842 -2.49376,-4.202444 -0.96979,-0.831253 -2.58612,-0.831253 -2.40139,0 -3.92536,2.355216 -2.72466,4.110083 -2.72466,11.268093 v 1.616325 z"
     style="font-style:normal;font-variant:normal;font-weight:bold;font-stretch:normal;font-family:'Times New Roman';-inkscape-font-specification:'Times New Roman, Bold';fill:#ffffff;stroke-width:11.65017986"
     id="path834" /><path
     d="m 422.53799,74.082183 v 9.79031 q 4.2948,-6.696203 7.52745,-8.866696 3.23265,-2.216674 6.2344,-2.216674 2.58612,0 4.11008,1.616324 1.57015,1.570145 1.57015,4.479529 0,3.094108 -1.52397,4.802794 -1.47778,1.708687 -3.60209,1.708687 -2.44758,0 -4.24863,-1.570145 -1.80104,-1.570144 -2.12431,-1.754867 -0.46181,-0.277084 -1.06216,-0.277084 -1.33924,0 -2.53993,1.015976 -1.89341,1.570144 -2.86321,4.479529 -1.47778,4.479529 -1.47778,9.882672 v 9.928852 l 0.0462,2.58612 q 0,2.6323 0.32326,3.37119 0.55417,1.24688 1.61633,1.84723 1.10834,0.55417 3.69446,0.69271 v 1.66251 h -23.32126 v -1.66251 q 2.81702,-0.2309 3.78682,-1.52396 1.01597,-1.33924 1.01597,-6.97329 V 83.225963 q 0,-3.694457 -0.36944,-4.710432 -0.46181,-1.29306 -1.33925,-1.893409 -0.87743,-0.60035 -3.0941,-0.831253 v -1.708686 z"
     style="font-style:normal;font-variant:normal;font-weight:bold;font-stretch:normal;font-family:'Times New Roman';-inkscape-font-specification:'Times New Roman, Bold';fill:#ffffff;stroke-width:11.65017986"
     id="path836" /><path
     d="m 446.50579,103.03749 q 3.23265,0 5.44932,2.26285 2.26286,2.26286 2.26286,5.44933 0,3.18647 -2.26286,5.44932 -2.26285,2.21667 -5.44932,2.21667 -3.18647,0 -5.44933,-2.21667 -2.21667,-2.26285 -2.21667,-5.44932 0,-3.18647 2.21667,-5.44933 2.26286,-2.26285 5.44933,-2.26285 z"
     style="font-style:normal;font-variant:normal;font-weight:bold;font-stretch:normal;font-family:'Times New Roman';-inkscape-font-specification:'Times New Roman, Bold';fill:#ffffff;stroke-width:11.65017986"
     id="path838" /></g>
</g></g></svg>